<svg width="45" height="45" viewBox="0 0 45 45" fill="none" xmlns="http://www.w3.org/2000/svg">
<path id="Vector" d="M13.2955 0C5.96504 0 0 5.96504 0 13.2955V31.7045C0 39.035 5.96504 45 13.2955 45H31.7045C39.035 45 45 39.035 45 31.7045V13.2955C45 5.96504 39.035 0 31.7045 0H13.2955ZM13.2955 2.04545H31.7045C37.9294 2.04545 42.9545 7.07064 42.9545 13.2955V31.7045C42.9545 37.9294 37.9294 42.9545 31.7045 42.9545H13.2955C7.07064 42.9545 2.04545 37.9294 2.04545 31.7045V13.2955C2.04545 7.07064 7.07064 2.04545 13.2955 2.04545ZM34.7727 8.18182C34.2302 8.18182 33.71 8.39732 33.3264 8.78092C32.9428 9.16452 32.7273 9.68478 32.7273 10.2273C32.7273 10.7698 32.9428 11.29 33.3264 11.6736C33.71 12.0572 34.2302 12.2727 34.7727 12.2727C35.3152 12.2727 35.8355 12.0572 36.2191 11.6736C36.6027 11.29 36.8182 10.7698 36.8182 10.2273C36.8182 9.68478 36.6027 9.16452 36.2191 8.78092C35.8355 8.39732 35.3152 8.18182 34.7727 8.18182ZM22.5 11.25C16.2989 11.25 11.25 16.2989 11.25 22.5C11.25 28.7011 16.2989 33.75 22.5 33.75C28.7011 33.75 33.75 28.7011 33.75 22.5C33.75 16.2989 28.7011 11.25 22.5 11.25ZM22.5 13.2955C27.5956 13.2955 31.7045 17.4044 31.7045 22.5C31.7045 27.5956 27.5956 31.7045 22.5 31.7045C17.4044 31.7045 13.2955 27.5956 13.2955 22.5C13.2955 17.4044 17.4044 13.2955 22.5 13.2955Z" fill="white"/>
</svg>
