<svg width="50" height="40" viewBox="0 0 50 40" fill="none" xmlns="http://www.w3.org/2000/svg">
<path id="Vector" d="M24.8301 0C17.1712 0 9.97915 0.625 6.14973 1.49902C3.5983 2.12402 1.39128 3.99902 0.929031 6.875C0.466782 9.87305 0 14.375 0 20C0 25.625 0.46225 30 1.04233 33.125C1.50911 35.874 3.71159 37.876 6.26303 38.501C10.3281 39.375 17.2845 40 24.9434 40C32.6022 40 39.5586 39.375 43.6191 38.501C46.1751 37.876 48.3776 36.001 48.8398 33.125C49.3066 30 49.8867 25.5029 50 19.8779C50 14.2529 49.4199 9.75098 48.8398 6.62598C48.3776 3.87695 46.1751 1.875 43.6191 1.25C39.5586 0.625 32.4844 0 24.8301 0ZM24.8301 2.5C33.1823 2.5 39.9076 3.24707 43.1569 3.87207C44.8971 4.375 46.2884 5.625 46.5195 7.25098C47.2174 11.25 47.6797 15.5029 47.6797 19.8779C47.5664 25.249 46.9863 29.624 46.5195 32.749C46.1751 35.1221 43.8548 35.874 43.1569 36.1279C38.9785 37.002 32.0176 37.6221 25.0566 37.6221C18.0957 37.6221 11.0215 37.124 6.96094 36.1279C5.2207 35.625 3.82942 34.375 3.5983 32.749C2.66926 29.248 2.32031 24.624 2.32031 20C2.32031 14.248 2.78709 10 3.24934 7.37793C3.5983 5 6.0319 4.24805 6.61198 3.99902C10.4414 3.125 17.5202 2.5 24.8301 2.5ZM18.5625 10V30L34.8047 20L18.5625 10ZM20.8828 14.2529L30.1641 20L20.8828 25.7471V14.2529Z" fill="white"/>
</svg>
