<svg width="45" height="45" viewBox="0 0 45 45" fill="none" xmlns="http://www.w3.org/2000/svg">
<path d="M35.614 22.348C35.614 22.9561 36.0681 23.5642 36.8251 23.5642C37.582 23.5642 38.0362 23.1081 38.0362 22.348C38.0362 13.9865 31.2237 7.14527 22.8974 7.14527C22.2918 7.14527 21.6863 7.60135 21.6863 8.36149C21.6863 9.12162 22.1405 9.5777 22.8974 9.5777C29.8612 9.42568 35.614 15.2027 35.614 22.348ZM21.6863 14.4426C21.6863 15.0507 22.1405 15.6588 22.8974 15.6588C26.5307 15.6588 29.4071 18.5473 29.4071 22.1959C29.4071 22.8041 29.8612 23.4122 30.6182 23.4122C31.3751 23.4122 31.8293 22.9561 31.8293 22.1959C31.8293 17.3311 27.8932 13.3784 23.0488 13.3784C22.1405 13.3784 21.6863 13.8345 21.6863 14.4426ZM22.746 0C22.1405 0 21.5349 0.456081 21.5349 1.21622C21.5349 1.97635 21.9891 2.43243 22.746 2.43243C33.6459 2.43243 42.5778 11.402 42.5778 22.348C42.5778 22.9561 43.032 23.5642 43.7889 23.5642C44.5458 23.5642 45 23.1081 45 22.348C44.8486 10.0338 35.0084 0 22.746 0ZM29.1043 26.6047C28.9529 26.4527 28.6501 26.3007 28.3474 26.3007C28.0446 26.3007 27.7418 26.4527 27.5904 26.6047L25.1682 29.0372C24.2599 29.9493 22.746 29.9493 21.8377 29.0372L16.2363 23.8682C15.328 22.9561 15.328 21.4358 16.2363 20.5236L18.9613 17.7872C19.4155 17.3311 19.4155 16.5709 18.9613 16.1149L7.75862 5.01689C7.60723 4.86486 7.30446 4.71284 7.00168 4.71284C6.69891 4.71284 6.39613 4.86486 6.24474 5.01689C6.09336 5.16892 2.61144 8.66554 1.8545 9.5777C-0.264928 11.7061 -0.567704 16.1149 0.946173 19.9155C4.2767 28.277 15.328 38.4628 24.5627 44.0878C25.3196 44.5439 27.1362 45 28.9529 45C30.6182 45 33.0404 44.6959 35.1598 42.8716C37.1278 41.1993 39.3987 38.7669 39.55 38.6149C40.0042 38.1588 40.0042 37.3986 39.55 37.0946L29.1043 26.6047ZM33.6459 41.0473C32.132 42.4155 30.3154 42.5676 28.9529 42.5676C27.2876 42.5676 25.9251 42.1115 25.7738 41.9595C15.328 35.7263 5.79058 26.1486 3.0656 19.0034C1.8545 15.8108 2.30866 12.3142 3.36838 11.098C3.97393 10.4899 5.79058 8.66554 7.00168 7.44932L16.3877 16.875L14.4197 18.8514C12.603 20.6757 12.603 23.5642 14.4197 25.3885L20.021 30.5574C21.6863 32.2297 24.714 32.2297 26.5307 30.5574L28.196 28.8851L36.9765 37.7027C36.2195 38.7669 34.857 40.1351 33.6459 41.0473Z" fill="white"/>
</svg>
